<svg version="1.1" id="Layer_1" xmlns="http://www.w3.org/2000/svg" x="0" y="0" viewBox="0 0 326 261" style="enable-background:new 0 0 326 261" xml:space="preserve"><path d="M245 72.4c4.6 13.1 7.1 28.2 7.1 44.1 0 1.3-.1 2.6-.1 3.9 0 17.6-10.6 33.2-25.6 40-19.4 8.5-44.6 15.6-72.4 20-20.8 3.3-40.5 4.6-58 4.2l-30.7 72.3c-1.3 2.5-3.6 4.2-6.5 4.2-1.8 0-3.5-.7-4.7-1.8L2.2 216.6a7.24 7.24 0 0 1-2.3-5.3c0-2.3.9-4.4 2.9-5.7L210.2 13.1C219 5.1 230.6.2 243.5.2c13.4 0 25.6 5.3 34.7 13.9l46.2 47c1.2 1.3 1.8 2.9 1.8 4.8 0 3.9-3.2 7.1-7.1 7.1l-74.1-.6z" style="fill:#acea00"/></svg>