<?xml version="1.0" encoding="utf-8"?>
<!-- Generator: Adobe Illustrator 27.1.1, SVG Export Plug-In . SVG Version: 6.00 Build 0)  -->
<svg version="1.1" id="Camada_1" xmlns="http://www.w3.org/2000/svg" xmlns:xlink="http://www.w3.org/1999/xlink" x="0px" y="0px" viewBox="0 0 770 208" style="enable-background: new 0 0 770 208" xml:space="preserve">
<g>
	<path d="M72.5,80.1c1.4,3.9,2.1,8.4,2.1,13.2c0,0.4,0,0.8,0,1.2c0,5.3-3.2,9.9-7.7,12c-5.8,2.5-13.3,4.7-21.6,6
		c-6.2,1-12.1,1.4-17.3,1.3l-9.2,21.6c-0.4,0.7-1.1,1.3-1.9,1.3c-0.5,0-1-0.2-1.4-0.5l-15.5-12.8c-0.4-0.4-0.7-1-0.7-1.6
		c0-0.7,0.3-1.3,0.9-1.7l62.1-57.6c2.6-2.4,6.1-3.9,10-3.9c4,0,7.7,1.6,10.4,4.2l13.8,14.1c0.3,0.4,0.5,0.9,0.5,1.4
		c0,1.2-0.9,2.1-2.1,2.1L72.5,80.1z"></path>
	<path d="M72.5,80.1c1.4,3.9,2.1,8.4,2.1,13.2c0,0.4,0,0.8,0,1.2c0,5.3-3.2,9.9-7.7,12c-5.8,2.5-13.3,4.7-21.6,6
		c-6.2,1-12.1,1.4-17.3,1.3l-9.2,21.6c-0.4,0.7-1.1,1.3-1.9,1.3c-0.5,0-1-0.2-1.4-0.5l-15.5-12.8c-0.4-0.4-0.7-1-0.7-1.6
		c0-0.7,0.3-1.3,0.9-1.7l62.1-57.6c2.6-2.4,6.1-3.9,10-3.9c4,0,7.7,1.6,10.4,4.2l13.8,14.1c0.3,0.4,0.5,0.9,0.5,1.4
		c0,1.2-0.9,2.1-2.1,2.1L72.5,80.1z"></path>
	<path d="M176.7,197.3c0.9-1,1.5-2.4,1.5-3.8c0-3.2-2.6-5.7-5.7-5.7c-1.5,0-2.8,0.6-3.8,1.5c-4.1,3.9-8.7,6.1-15,6.2
		c-5.8,0.1-11.2-2.2-15-6c-1.1-1-2.5-1.7-4.1-1.7c-1.8,0-3.1,0.7-4.2,1.9c-3.6,3.7-8.5,6-14.1,6c-5.6,0-10.4-2.1-14-5.9
		c-1.1-1.3-2.7-2.1-4.4-2.1c-1.6,0-3.2,0.7-4.2,1.8c-3.9,3.9-9.1,6.1-15,6.1c-5.8,0-11.2-2.4-15-6.3c-1.1-1-2.5-1.7-4.1-1.7
		c-3.2,0-5.7,2.6-5.7,5.7c0,1.4,0.6,3,1.5,4c5.2,6,13.1,9.8,21.7,9.8c6.2,0,12.1-1.8,16.8-5.1c0.9-0.8,2.2-1.2,3.6-1.2
		c1.5,0,2.8,0.5,3.8,1.4c4.1,3,9.2,4.9,14.7,4.9c5.7,0,10.9-1.9,15.2-5.2c1-0.8,2.2-1.3,3.5-1.3c1.4,0,2.5,0.4,3.5,1.2
		c4.7,3.3,10.4,5.2,16.5,5.2C163.4,207.3,171.3,203.3,176.7,197.3"></path>
	<path d="M176.7,197.3c0.9-1,1.5-2.4,1.5-3.8c0-3.2-2.6-5.7-5.7-5.7c-1.5,0-2.8,0.6-3.8,1.5c-4.1,3.9-8.7,6.1-15,6.2
		c-5.8,0.1-11.2-2.2-15-6c-1.1-1-2.5-1.7-4.1-1.7c-1.8,0-3.1,0.7-4.2,1.9c-3.6,3.7-8.5,6-14.1,6c-5.6,0-10.4-2.1-14-5.9
		c-1.1-1.3-2.7-2.1-4.4-2.1c-1.6,0-3.2,0.7-4.2,1.8c-3.9,3.9-9.1,6.1-15,6.1c-5.8,0-11.2-2.4-15-6.3c-1.1-1-2.5-1.7-4.1-1.7
		c-3.2,0-5.7,2.6-5.7,5.7c0,1.4,0.6,3,1.5,4c5.2,6,13.1,9.8,21.7,9.8c6.2,0,12.1-1.8,16.8-5.1c0.9-0.8,2.2-1.2,3.6-1.2
		c1.5,0,2.8,0.5,3.8,1.4c4.1,3,9.2,4.9,14.7,4.9c5.7,0,10.9-1.9,15.2-5.2c1-0.8,2.2-1.3,3.5-1.3c1.4,0,2.5,0.4,3.5,1.2
		c4.7,3.3,10.4,5.2,16.5,5.2C163.4,207.3,171.3,203.3,176.7,197.3z"></path>
	<path d="M161.6,36.5c0-1.8-1.5-3.3-3.3-3.3h0l-84.5,0c-1.8,0-3.4,1.4-3.4,3.2v7.2c0,1.8,1.6,3.5,3.4,3.5l37,0l-6.8,94.8
		c-12.4-3.4-22.5-11.9-28.1-23.2H42.3c-1.8,0-3.2,1.6-3.2,3.4l-0.1,8.7c0,1.8,1.6,3.4,3.5,3.4l8.9,0c8.1,28,33.9,48.4,64.5,48.4
		c30.6,0,56.5-20.6,64.6-48.6l8.5,0c1.8,0,3.4-1.5,3.4-3.3l-0.1-8.7c0-1.8-1.4-3.4-3.2-3.4l-32.9,0c-5.6,11.7-15.7,19.9-28.4,23.4
		l-6.5-95l36.9,0c1.8,0,3.4-1.3,3.4-3.2L161.6,36.5z"></path>
	<path d="M161.6,36.5c0-1.8-1.5-3.3-3.3-3.3h0l-84.5,0c-1.8,0-3.4,1.4-3.4,3.2v7.2c0,1.8,1.6,3.5,3.4,3.5l37,0l-6.8,94.8
		c-12.4-3.4-22.5-11.9-28.1-23.2H42.3c-1.8,0-3.2,1.6-3.2,3.4l-0.1,8.7c0,1.8,1.6,3.4,3.5,3.4l8.9,0c8.1,28,33.9,48.4,64.5,48.4
		c30.6,0,56.5-20.6,64.6-48.6l8.5,0c1.8,0,3.4-1.5,3.4-3.3l-0.1-8.7c0-1.8-1.4-3.4-3.2-3.4l-32.9,0c-5.6,11.7-15.7,19.9-28.4,23.4
		l-6.5-95l36.9,0c1.8,0,3.4-1.3,3.4-3.2L161.6,36.5z"></path>
	<path d="M136.5,26.9c1.3,0,2.3-1,2.3-2.3c0-0.7-0.3-1.3-0.8-1.7l-12.3-9.3l12.3-9.6c0.4-0.4,0.7-1,0.7-1.7c0-1.3-1.1-2.3-2.3-2.3
		l-30.7,0c-1.8,0-3.3,1.6-3.3,3.4l-0.1,20.3c0,1.8,1.5,3.3,3.3,3.3L136.5,26.9z"></path>
	<path d="M136.5,26.9c1.3,0,2.3-1,2.3-2.3c0-0.7-0.3-1.3-0.8-1.7l-12.3-9.3l12.3-9.6c0.4-0.4,0.7-1,0.7-1.7c0-1.3-1.1-2.3-2.3-2.3
		l-30.7,0c-1.8,0-3.3,1.6-3.3,3.4l-0.1,20.3c0,1.8,1.5,3.3,3.3,3.3L136.5,26.9z"></path>
	<path d="M157.3,79.8c-1.4,3.9-2.1,8.4-2.1,13.2c0,0.4,0,0.8,0,1.2c0,5.3,3.2,9.9,7.7,12c5.8,2.5,13.3,4.7,21.6,6
		c6.2,1,12.1,1.4,17.3,1.3l9.2,21.6c0.4,0.7,1.1,1.3,1.9,1.3c0.5,0,1-0.2,1.4-0.5l15.5-12.8c0.4-0.4,0.7-0.9,0.7-1.6
		c0-0.7-0.3-1.3-0.9-1.7l-62.1-57.6c-2.6-2.4-6.1-3.9-10-3.9c-4,0-7.7,1.6-10.4,4.2l-13.8,14.1c-0.3,0.4-0.5,0.9-0.5,1.4
		c0,1.2,0.9,2.1,2.1,2.1L157.3,79.8z"></path>
	<path d="M157.3,79.8c-1.4,3.9-2.1,8.4-2.1,13.2c0,0.4,0,0.8,0,1.2c0,5.3,3.2,9.9,7.7,12c5.8,2.5,13.3,4.7,21.6,6
		c6.2,1,12.1,1.4,17.3,1.3l9.2,21.6c0.4,0.7,1.1,1.3,1.9,1.3c0.5,0,1-0.2,1.4-0.5l15.5-12.8c0.4-0.4,0.7-0.9,0.7-1.6
		c0-0.7-0.3-1.3-0.9-1.7l-62.1-57.6c-2.6-2.4-6.1-3.9-10-3.9c-4,0-7.7,1.6-10.4,4.2l-13.8,14.1c-0.3,0.4-0.5,0.9-0.5,1.4
		c0,1.2,0.9,2.1,2.1,2.1L157.3,79.8z"></path>
	<path d="M769.4,205.3c0-0.2-0.1-0.3-0.1-0.4c-0.1-0.1-0.1-0.2-0.2-0.2c-0.1-0.1-0.2-0.1-0.3-0.1h-8.4v-20.2c0-0.1,0-0.2-0.1-0.3
		c0-0.1-0.1-0.1-0.3-0.2c-0.1,0-0.3-0.1-0.5-0.1c-0.2,0-0.4,0-0.7,0c-0.3,0-0.5,0-0.7,0c-0.2,0-0.4,0.1-0.5,0.1
		c-0.1,0-0.2,0.1-0.3,0.2c0,0.1-0.1,0.2-0.1,0.3V206c0,0.5,0.1,0.8,0.4,1c0.2,0.2,0.5,0.3,0.8,0.3h10.3c0.1,0,0.2,0,0.3-0.1
		c0.1-0.1,0.1-0.1,0.2-0.2c0.1-0.1,0.1-0.3,0.1-0.4c0-0.2,0-0.4,0-0.6C769.5,205.6,769.5,205.4,769.4,205.3 M735.3,198.6h-8.1
		l4-11.6h0L735.3,198.6z M733.5,184.4c0-0.1-0.1-0.2-0.2-0.3c-0.1-0.1-0.2-0.2-0.4-0.2c-0.2,0-0.4-0.1-0.6-0.1c-0.3,0-0.6,0-1,0
		c-0.4,0-0.7,0-0.9,0c-0.2,0-0.4,0.1-0.6,0.1c-0.1,0.1-0.3,0.1-0.3,0.2c-0.1,0.1-0.1,0.2-0.2,0.3l-7.8,21.7
		c-0.1,0.3-0.1,0.5-0.2,0.6c0,0.2,0,0.3,0.1,0.4c0.1,0.1,0.2,0.1,0.5,0.2c0.2,0,0.5,0,0.9,0c0.3,0,0.6,0,0.8,0
		c0.2,0,0.4-0.1,0.5-0.1c0.1-0.1,0.2-0.1,0.3-0.2c0.1-0.1,0.1-0.2,0.1-0.3l1.9-5.6h9.7l2,5.7c0,0.1,0.1,0.2,0.2,0.3
		c0.1,0.1,0.1,0.1,0.3,0.2c0.1,0,0.3,0.1,0.5,0.1c0.2,0,0.5,0,0.9,0c0.4,0,0.7,0,0.9,0c0.2,0,0.4-0.1,0.5-0.2
		c0.1-0.1,0.1-0.2,0.1-0.4c0-0.2-0.1-0.4-0.2-0.6L733.5,184.4z M706,192.9c-0.2,0.6-0.5,1.1-1,1.5c-0.4,0.4-0.9,0.8-1.6,1
		c-0.6,0.2-1.4,0.4-2.3,0.4h-2.8v-9.4h2.9c0.5,0,1.1,0,1.6,0.1c0.6,0.1,1.1,0.3,1.6,0.6c0.5,0.3,1,0.8,1.3,1.4
		c0.4,0.6,0.5,1.4,0.5,2.4C706.4,191.7,706.3,192.3,706,192.9 M709.3,188.3c-0.2-0.7-0.6-1.4-1.1-1.9c-0.5-0.6-1-1-1.7-1.4
		c-0.7-0.4-1.3-0.6-1.9-0.8c-0.6-0.1-1.2-0.2-1.6-0.3c-0.5,0-0.9-0.1-1.5-0.1h-5c-0.3,0-0.6,0.1-0.8,0.3c-0.3,0.2-0.4,0.5-0.4,1
		v21.5c0,0.1,0,0.2,0.1,0.3c0,0.1,0.1,0.1,0.3,0.2c0.1,0,0.3,0.1,0.5,0.1c0.2,0,0.4,0,0.7,0c0.3,0,0.6,0,0.8,0
		c0.2,0,0.4-0.1,0.5-0.1c0.1,0,0.2-0.1,0.3-0.2c0.1-0.1,0.1-0.2,0.1-0.3v-8.4h2.7c1.4,0,2.7-0.2,3.7-0.5c1-0.4,1.9-0.9,2.6-1.5
		c0.7-0.7,1.3-1.5,1.7-2.4c0.4-0.9,0.6-2,0.6-3.2C709.6,189.8,709.5,189,709.3,188.3 M676.9,184.4c0-0.1,0-0.2-0.1-0.3
		c0-0.1-0.1-0.1-0.3-0.2c-0.1,0-0.3-0.1-0.5-0.1c-0.2,0-0.4,0-0.7,0c-0.3,0-0.5,0-0.7,0c-0.2,0-0.4,0.1-0.5,0.1
		c-0.1,0-0.2,0.1-0.3,0.2c-0.1,0.1-0.1,0.2-0.1,0.3v22.4c0,0.1,0,0.2,0.1,0.3c0,0.1,0.1,0.1,0.3,0.2c0.1,0,0.3,0.1,0.5,0.1
		c0.2,0,0.4,0,0.7,0c0.3,0,0.6,0,0.7,0c0.2,0,0.4-0.1,0.5-0.1c0.1,0,0.2-0.1,0.3-0.2c0-0.1,0.1-0.2,0.1-0.3V184.4z M657.5,203.2
		c0-0.2,0-0.3-0.1-0.4c0-0.1-0.1-0.2-0.1-0.2c-0.1,0-0.1-0.1-0.2-0.1c-0.2,0-0.4,0.1-0.7,0.3c-0.3,0.2-0.7,0.5-1.2,0.8
		c-0.5,0.3-1.1,0.5-1.8,0.8c-0.7,0.2-1.5,0.3-2.4,0.3c-1.1,0-2.1-0.2-3-0.6c-0.9-0.4-1.6-1-2.2-1.7c-0.6-0.8-1.1-1.7-1.4-2.9
		c-0.3-1.1-0.5-2.4-0.5-3.9c0-1.5,0.2-2.8,0.5-4c0.3-1.2,0.8-2.1,1.4-2.9c0.6-0.8,1.3-1.4,2.2-1.8c0.9-0.4,1.8-0.6,2.8-0.6
		c1,0,1.8,0.1,2.5,0.3c0.7,0.2,1.3,0.5,1.7,0.8c0.5,0.3,0.9,0.5,1.2,0.8c0.3,0.2,0.5,0.4,0.7,0.4c0.1,0,0.2,0,0.2-0.1
		c0.1-0.1,0.1-0.1,0.2-0.3c0-0.1,0.1-0.3,0.1-0.4c0-0.2,0-0.4,0-0.6c0-0.2,0-0.4,0-0.6c0-0.2,0-0.3-0.1-0.4c0-0.1-0.1-0.2-0.1-0.3
		c0-0.1-0.2-0.2-0.3-0.4c-0.2-0.2-0.5-0.4-0.9-0.6c-0.4-0.3-0.9-0.5-1.4-0.7c-0.5-0.2-1.1-0.3-1.8-0.5c-0.6-0.1-1.3-0.2-2-0.2
		c-1.5,0-2.9,0.3-4.2,0.8c-1.3,0.6-2.3,1.4-3.2,2.4c-0.9,1-1.6,2.3-2.1,3.8c-0.5,1.5-0.7,3.2-0.7,5.2c0,1.9,0.2,3.6,0.7,5
		c0.5,1.4,1.1,2.7,2,3.7c0.9,1,1.9,1.7,3.1,2.2c1.2,0.5,2.6,0.8,4.1,0.8c0.9,0,1.7-0.1,2.4-0.2c0.7-0.2,1.4-0.4,2-0.6
		c0.6-0.2,1-0.5,1.4-0.7c0.4-0.2,0.6-0.4,0.8-0.6c0.1-0.1,0.2-0.2,0.3-0.3c0-0.1,0.1-0.2,0.1-0.3c0-0.1,0.1-0.2,0.1-0.4
		c0-0.1,0-0.3,0-0.5C657.5,203.6,657.5,203.4,657.5,203.2 M623.5,184.4c0-0.1,0-0.2-0.1-0.3c-0.1-0.1-0.1-0.1-0.3-0.2
		c-0.1,0-0.3-0.1-0.5-0.1c-0.2,0-0.4,0-0.7,0c-0.3,0-0.5,0-0.7,0c-0.2,0-0.4,0.1-0.5,0.1c-0.1,0-0.2,0.1-0.3,0.2
		c-0.1,0.1-0.1,0.2-0.1,0.3v22.4c0,0.1,0,0.2,0.1,0.3c0,0.1,0.1,0.1,0.3,0.2c0.1,0,0.3,0.1,0.5,0.1c0.2,0,0.5,0,0.7,0
		c0.3,0,0.6,0,0.7,0c0.2,0,0.4-0.1,0.5-0.1c0.1,0,0.2-0.1,0.3-0.2c0-0.1,0.1-0.2,0.1-0.3V184.4z M602.1,184.4c0-0.1,0-0.2-0.1-0.2
		c-0.1-0.1-0.1-0.1-0.2-0.2c-0.1-0.1-0.3-0.1-0.5-0.1c-0.2,0-0.4,0-0.7,0c-0.3,0-0.6,0-0.8,0c-0.2,0-0.4,0.1-0.5,0.1
		c-0.1,0.1-0.2,0.1-0.3,0.2c-0.1,0.1-0.1,0.2-0.1,0.2v12.7c0,1,0,1.9,0,3c0,1,0,2,0,3h0c-0.3-0.6-0.6-1.1-0.8-1.7
		c-0.3-0.6-0.6-1.1-0.9-1.7c-0.3-0.6-0.6-1.2-0.9-1.8c-0.3-0.6-0.6-1.2-1-1.8l-5.5-10.2c-0.2-0.4-0.4-0.7-0.6-0.9
		c-0.2-0.2-0.4-0.4-0.6-0.6c-0.2-0.1-0.4-0.2-0.7-0.3c-0.2-0.1-0.5-0.1-0.9-0.1h-1.5c-0.3,0-0.6,0.1-0.9,0.3c-0.3,0.2-0.4,0.5-0.4,1
		v21.5c0,0.1,0,0.2,0.1,0.2c0.1,0.1,0.1,0.1,0.2,0.2c0.1,0,0.3,0.1,0.5,0.1c0.2,0,0.4,0,0.7,0c0.3,0,0.6,0,0.8,0
		c0.2,0,0.4-0.1,0.5-0.1c0.1,0,0.2-0.1,0.3-0.2c0.1-0.1,0.1-0.2,0.1-0.2v-14.1c0-0.9,0-1.8,0-2.7c0-0.9,0-1.8-0.1-2.6h0
		c0.3,0.7,0.7,1.4,1.1,2.2c0.4,0.8,0.8,1.5,1.1,2.2l7.1,13.3c0.2,0.5,0.5,0.9,0.7,1.2c0.2,0.3,0.4,0.5,0.7,0.7
		c0.2,0.2,0.4,0.3,0.7,0.4c0.2,0.1,0.5,0.1,0.9,0.1h1c0.2,0,0.3,0,0.5-0.1c0.2,0,0.3-0.1,0.4-0.2c0.1-0.1,0.2-0.2,0.3-0.4
		c0.1-0.2,0.1-0.4,0.1-0.6V184.4z M566.1,184.4c0-0.1,0-0.2-0.1-0.3c-0.1-0.1-0.1-0.1-0.3-0.2c-0.1,0-0.3-0.1-0.5-0.1
		c-0.2,0-0.4,0-0.7,0c-0.3,0-0.5,0-0.7,0c-0.2,0-0.4,0.1-0.5,0.1c-0.1,0-0.2,0.1-0.3,0.2c0,0.1-0.1,0.2-0.1,0.3v14.3
		c0,1-0.1,2-0.4,2.7c-0.3,0.8-0.6,1.4-1.1,2c-0.5,0.5-1.1,0.9-1.8,1.2c-0.7,0.3-1.5,0.4-2.4,0.4c-0.9,0-1.7-0.1-2.4-0.4
		c-0.7-0.3-1.3-0.7-1.8-1.2c-0.5-0.5-0.9-1.2-1.1-2c-0.3-0.8-0.4-1.7-0.4-2.8v-14.1c0-0.1,0-0.2-0.1-0.3c0-0.1-0.1-0.1-0.2-0.2
		c-0.1,0-0.3-0.1-0.5-0.1c-0.2,0-0.5,0-0.7,0c-0.3,0-0.6,0-0.8,0c-0.2,0-0.3,0.1-0.5,0.1c-0.1,0-0.2,0.1-0.3,0.2
		c0,0.1-0.1,0.2-0.1,0.3v14.5c0,1.4,0.2,2.7,0.6,3.8c0.4,1.1,1,2,1.8,2.7c0.8,0.7,1.7,1.3,2.7,1.6c1.1,0.4,2.2,0.6,3.5,0.6
		c1.4,0,2.7-0.2,3.8-0.6c1.1-0.4,2-1,2.8-1.7c0.8-0.8,1.4-1.7,1.8-2.8c0.4-1.1,0.6-2.4,0.6-3.8V184.4z M530.2,185.3
		c0-0.3,0-0.5-0.1-0.6c-0.1-0.2-0.2-0.3-0.3-0.4c-0.1-0.1-0.3-0.2-0.4-0.3c-0.2-0.1-0.3-0.1-0.5-0.1h-2c-0.3,0-0.6,0-0.8,0.1
		c-0.2,0.1-0.4,0.2-0.6,0.3c-0.2,0.1-0.4,0.4-0.5,0.6c-0.2,0.3-0.3,0.6-0.4,0.9l-6.9,16.8h-0.1l-6.7-16.9c-0.1-0.3-0.2-0.6-0.4-0.8
		c-0.1-0.2-0.3-0.4-0.6-0.6c-0.2-0.2-0.5-0.3-0.8-0.3c-0.3-0.1-0.6-0.1-1-0.1h-1.9c-0.3,0-0.6,0.1-0.9,0.3c-0.3,0.2-0.4,0.6-0.4,1.1
		v21.5c0,0.1,0,0.2,0.1,0.3c0,0.1,0.1,0.1,0.2,0.2c0.1,0,0.3,0.1,0.5,0.1c0.2,0,0.4,0,0.7,0c0.3,0,0.6,0,0.8,0
		c0.2,0,0.4-0.1,0.5-0.1c0.1,0,0.2-0.1,0.3-0.2c0-0.1,0.1-0.2,0.1-0.3v-20.3h0l7.9,20.4c0,0.1,0.1,0.1,0.1,0.2
		c0.1,0.1,0.2,0.1,0.3,0.2c0.1,0,0.3,0.1,0.4,0.1c0.2,0,0.4,0,0.7,0c0.2,0,0.4,0,0.6,0c0.2,0,0.3,0,0.4-0.1c0.1,0,0.2-0.1,0.3-0.2
		c0.1-0.1,0.1-0.1,0.2-0.2l8.2-20.4h0v20.3c0,0.1,0,0.2,0.1,0.3c0.1,0.1,0.1,0.1,0.3,0.2c0.1,0,0.3,0.1,0.5,0.1c0.2,0,0.4,0,0.7,0
		c0.3,0,0.6,0,0.8,0c0.2,0,0.4-0.1,0.5-0.1c0.1,0,0.2-0.1,0.3-0.2c0.1-0.1,0.1-0.2,0.1-0.3V185.3z M461.4,198.6h-8.1l4-11.6h0
		L461.4,198.6z M459.5,184.4c0-0.1-0.1-0.2-0.2-0.3c-0.1-0.1-0.2-0.2-0.4-0.2c-0.2,0-0.4-0.1-0.6-0.1c-0.3,0-0.6,0-1,0
		c-0.4,0-0.7,0-0.9,0c-0.2,0-0.4,0.1-0.6,0.1c-0.2,0.1-0.3,0.1-0.3,0.2c-0.1,0.1-0.1,0.2-0.2,0.3l-7.8,21.7
		c-0.1,0.3-0.1,0.5-0.2,0.6c0,0.2,0,0.3,0.1,0.4c0.1,0.1,0.2,0.1,0.5,0.2c0.2,0,0.5,0,0.9,0c0.3,0,0.6,0,0.8,0
		c0.2,0,0.4-0.1,0.5-0.1c0.1-0.1,0.2-0.1,0.3-0.2c0.1-0.1,0.1-0.2,0.1-0.3l1.9-5.6h9.7l2,5.7c0.1,0.1,0.1,0.2,0.2,0.3
		c0.1,0.1,0.1,0.1,0.3,0.2c0.1,0,0.3,0.1,0.5,0.1c0.2,0,0.5,0,0.9,0c0.4,0,0.7,0,0.9,0c0.2,0,0.4-0.1,0.5-0.2
		c0.1-0.1,0.1-0.2,0.1-0.4c0-0.2-0.1-0.4-0.2-0.6L459.5,184.4z M428.2,191.9c-0.2,0.5-0.5,0.9-0.9,1.3c-0.4,0.4-0.9,0.6-1.5,0.8
		c-0.6,0.2-1.3,0.3-2.1,0.3h-3v-7.9h2.6c0.6,0,1.1,0,1.5,0.1c0.4,0,0.7,0.1,1,0.2c1,0.3,1.6,0.7,2.1,1.4c0.4,0.6,0.6,1.4,0.6,2.3
		C428.5,190.9,428.4,191.4,428.2,191.9 M433.1,206.3c0-0.2-0.2-0.5-0.3-0.9l-2.1-5.1c-0.2-0.6-0.5-1.1-0.7-1.6
		c-0.2-0.5-0.5-0.9-0.8-1.2c-0.3-0.4-0.6-0.7-0.9-0.9c-0.3-0.3-0.7-0.5-1-0.6c0.7-0.2,1.3-0.5,1.9-0.9c0.6-0.3,1-0.8,1.4-1.2
		c0.4-0.5,0.7-1,0.9-1.6c0.2-0.6,0.3-1.3,0.3-2.1c0-0.8-0.1-1.5-0.4-2.2c-0.2-0.7-0.6-1.3-1.1-1.8c-0.5-0.5-1-0.9-1.7-1.3
		c-0.7-0.3-1.5-0.6-2.4-0.7c-0.3,0-0.7-0.1-1.1-0.1c-0.4,0-0.9,0-1.5,0h-5c-0.3,0-0.5,0.1-0.8,0.3c-0.2,0.2-0.4,0.5-0.4,1v21.6
		c0,0.1,0,0.2,0.1,0.3c0,0.1,0.1,0.1,0.3,0.2c0.1,0,0.3,0.1,0.5,0.1c0.2,0,0.4,0,0.7,0c0.3,0,0.5,0,0.7,0c0.2,0,0.4-0.1,0.5-0.1
		c0.1,0,0.2-0.1,0.3-0.2c0.1-0.1,0.1-0.2,0.1-0.3v-9.9h2.1c0.7,0,1.3,0.1,1.8,0.3c0.5,0.2,0.9,0.5,1.3,0.9c0.4,0.4,0.7,0.8,1,1.4
		c0.3,0.5,0.5,1.1,0.8,1.7l2.1,5.5c0,0.1,0.1,0.3,0.2,0.4c0.1,0.1,0.2,0.2,0.3,0.2c0.1,0.1,0.3,0.1,0.5,0.1c0.2,0,0.5,0,0.8,0
		c0.4,0,0.6,0,0.9,0c0.2,0,0.4-0.1,0.5-0.1c0.1,0,0.2-0.1,0.2-0.2c0-0.1,0-0.2,0-0.3C433.2,206.6,433.2,206.5,433.1,206.3
		 M395.6,198.6h-8.1l4-11.6h0L395.6,198.6z M393.7,184.4c-0.1-0.1-0.1-0.2-0.2-0.3c-0.1-0.1-0.2-0.2-0.4-0.2c-0.2,0-0.4-0.1-0.6-0.1
		c-0.3,0-0.6,0-1,0c-0.4,0-0.7,0-0.9,0c-0.2,0-0.4,0.1-0.6,0.1c-0.2,0.1-0.3,0.1-0.3,0.2c-0.1,0.1-0.1,0.2-0.2,0.3l-7.8,21.7
		c-0.1,0.3-0.1,0.5-0.2,0.6c0,0.2,0,0.3,0.1,0.4c0.1,0.1,0.2,0.1,0.5,0.2c0.2,0,0.5,0,0.9,0c0.3,0,0.6,0,0.8,0
		c0.2,0,0.4-0.1,0.5-0.1c0.1-0.1,0.2-0.1,0.3-0.2c0.1-0.1,0.1-0.2,0.1-0.3l1.9-5.6h9.7l2,5.7c0,0.1,0.1,0.2,0.2,0.3
		c0.1,0.1,0.1,0.1,0.3,0.2c0.1,0,0.3,0.1,0.5,0.1c0.2,0,0.5,0,0.9,0c0.4,0,0.7,0,0.9,0c0.2,0,0.4-0.1,0.5-0.2
		c0.1-0.1,0.1-0.2,0.1-0.4c0-0.2-0.1-0.4-0.2-0.6L393.7,184.4z M365.7,185.3c0-0.3,0-0.5-0.1-0.6c-0.1-0.2-0.2-0.3-0.3-0.4
		c-0.1-0.1-0.3-0.2-0.4-0.3c-0.2-0.1-0.3-0.1-0.5-0.1h-2c-0.3,0-0.6,0-0.8,0.1c-0.2,0.1-0.4,0.2-0.6,0.3c-0.2,0.1-0.4,0.4-0.5,0.6
		c-0.2,0.3-0.3,0.6-0.4,0.9l-6.9,16.8h-0.1l-6.7-16.9c-0.1-0.3-0.2-0.6-0.4-0.8c-0.1-0.2-0.3-0.4-0.6-0.6c-0.2-0.2-0.5-0.3-0.8-0.3
		c-0.3-0.1-0.6-0.1-1-0.1h-1.9c-0.3,0-0.6,0.1-0.9,0.3c-0.3,0.2-0.4,0.6-0.4,1.1v21.5c0,0.1,0,0.2,0.1,0.3c0,0.1,0.1,0.1,0.2,0.2
		c0.1,0,0.3,0.1,0.5,0.1c0.2,0,0.4,0,0.7,0c0.3,0,0.6,0,0.8,0c0.2,0,0.4-0.1,0.5-0.1c0.1,0,0.2-0.1,0.3-0.2c0-0.1,0.1-0.2,0.1-0.3
		v-20.3h0l7.9,20.4c0,0.1,0.1,0.1,0.1,0.2c0.1,0.1,0.2,0.1,0.3,0.2c0.1,0,0.3,0.1,0.5,0.1c0.2,0,0.4,0,0.7,0c0.2,0,0.4,0,0.6,0
		c0.2,0,0.3,0,0.5-0.1c0.1,0,0.2-0.1,0.3-0.2c0.1-0.1,0.1-0.1,0.2-0.2l8.2-20.4h0v20.3c0,0.1,0,0.2,0.1,0.3c0,0.1,0.1,0.1,0.3,0.2
		c0.1,0,0.3,0.1,0.5,0.1c0.2,0,0.4,0,0.7,0c0.3,0,0.6,0,0.8,0c0.2,0,0.3-0.1,0.5-0.1c0.1,0,0.2-0.1,0.3-0.2c0-0.1,0.1-0.2,0.1-0.3
		V185.3z M313.9,176.8c-0.2,0-0.3,0-0.5,0.1c-0.1,0-0.2,0.1-0.4,0.2c-0.1,0.1-0.2,0.2-0.3,0.3l-4,4.1c-0.1,0.1-0.2,0.2-0.2,0.3
		c0,0.1,0,0.2,0.1,0.2c0.1,0.1,0.2,0.1,0.3,0.1c0.2,0,0.4,0,0.7,0c0.3,0,0.6,0,0.8,0c0.2,0,0.4,0,0.5-0.1c0.1,0,0.3-0.1,0.4-0.2
		c0.1-0.1,0.2-0.1,0.3-0.2l2.9-3l2.8,3.1c0.1,0.1,0.1,0.1,0.2,0.2c0.1,0.1,0.2,0.1,0.3,0.1c0.1,0,0.3,0.1,0.5,0.1c0.2,0,0.5,0,0.9,0
		c0.3,0,0.5,0,0.6,0c0.2,0,0.3-0.1,0.4-0.1c0.1-0.1,0.1-0.1,0.1-0.2c0-0.1-0.1-0.2-0.2-0.3l-3.9-4.1c-0.1-0.1-0.2-0.2-0.3-0.3
		c-0.1-0.1-0.2-0.1-0.3-0.2c-0.1,0-0.3-0.1-0.4-0.1c-0.2,0-0.4,0-0.6,0C314.3,176.8,314.1,176.8,313.9,176.8 M318.3,198.6h-8.1
		l4-11.6h0L318.3,198.6z M316.4,184.4c0-0.1-0.1-0.2-0.2-0.3c-0.1-0.1-0.2-0.2-0.4-0.2c-0.2,0-0.4-0.1-0.6-0.1c-0.3,0-0.6,0-1,0
		c-0.4,0-0.7,0-0.9,0c-0.2,0-0.4,0.1-0.6,0.1c-0.1,0.1-0.3,0.1-0.3,0.2c-0.1,0.1-0.1,0.2-0.2,0.3l-7.8,21.7
		c-0.1,0.3-0.1,0.5-0.2,0.6c0,0.2,0,0.3,0.1,0.4c0.1,0.1,0.2,0.1,0.5,0.2c0.2,0,0.5,0,0.9,0c0.3,0,0.6,0,0.8,0
		c0.2,0,0.4-0.1,0.5-0.1c0.1-0.1,0.2-0.1,0.3-0.2c0.1-0.1,0.1-0.2,0.1-0.3l1.9-5.6h9.7l2,5.7c0,0.1,0.1,0.2,0.2,0.3
		c0.1,0.1,0.1,0.1,0.3,0.2c0.1,0,0.3,0.1,0.5,0.1c0.2,0,0.5,0,0.9,0c0.4,0,0.7,0,0.9,0c0.2,0,0.4-0.1,0.5-0.2
		c0.1-0.1,0.1-0.2,0.1-0.4c0-0.2-0.1-0.4-0.2-0.6L316.4,184.4z M290.4,203.2c0-0.2,0-0.3-0.1-0.4c0-0.1-0.1-0.2-0.1-0.2
		c-0.1,0-0.1-0.1-0.2-0.1c-0.2,0-0.4,0.1-0.7,0.3c-0.3,0.2-0.7,0.5-1.2,0.8c-0.5,0.3-1.1,0.5-1.8,0.8c-0.7,0.2-1.5,0.3-2.4,0.3
		c-1.1,0-2.1-0.2-3-0.6c-0.9-0.4-1.6-1-2.2-1.7c-0.6-0.8-1.1-1.7-1.4-2.9c-0.3-1.1-0.5-2.4-0.5-3.9c0-1.5,0.2-2.8,0.5-4
		c0.3-1.2,0.8-2.1,1.4-2.9c0.6-0.8,1.3-1.4,2.2-1.8c0.9-0.4,1.8-0.6,2.8-0.6c1,0,1.8,0.1,2.5,0.3c0.7,0.2,1.3,0.5,1.7,0.8
		c0.5,0.3,0.9,0.5,1.2,0.8c0.3,0.2,0.5,0.4,0.7,0.4c0.1,0,0.2,0,0.2-0.1c0.1-0.1,0.1-0.1,0.2-0.3c0-0.1,0.1-0.3,0.1-0.4
		c0-0.2,0-0.4,0-0.6c0-0.2,0-0.4,0-0.6c0-0.2,0-0.3-0.1-0.4c0-0.1-0.1-0.2-0.1-0.3c0-0.1-0.2-0.2-0.3-0.4c-0.2-0.2-0.5-0.4-0.9-0.6
		c-0.4-0.3-0.9-0.5-1.4-0.7c-0.5-0.2-1.1-0.3-1.8-0.5c-0.6-0.1-1.3-0.2-2-0.2c-1.5,0-2.9,0.3-4.2,0.8c-1.3,0.6-2.3,1.4-3.2,2.4
		c-0.9,1-1.6,2.3-2.1,3.8c-0.5,1.5-0.7,3.2-0.7,5.2c0,1.9,0.2,3.6,0.7,5c0.5,1.4,1.1,2.7,2,3.7c0.9,1,1.9,1.7,3.1,2.2
		c1.2,0.5,2.6,0.8,4.1,0.8c0.9,0,1.7-0.1,2.4-0.2c0.7-0.2,1.4-0.4,2-0.6c0.6-0.2,1-0.5,1.4-0.7c0.4-0.2,0.6-0.4,0.8-0.6
		c0.1-0.1,0.2-0.2,0.3-0.3c0-0.1,0.1-0.2,0.1-0.3c0-0.1,0.1-0.2,0.1-0.4c0-0.1,0-0.3,0-0.5C290.5,203.6,290.5,203.4,290.4,203.2"></path>
	<path d="M736,103.5h-26.5L723,64.8L736,103.5z M769.5,139.9L730.6,33.3h-16.3l-38.8,106.6h21.7l6.4-18.9h37.9l6.3,18.9H769.5z
		 M646.6,86.6c0,20.5-1.2,25.5-5.2,29.9c-3,3.4-7.6,5.7-13.3,5.7c-5.7,0-10.5-2.2-13.5-5.7c-4-4.5-5.1-9.4-5.1-29.9
		c0-20.5,1-25.5,5.1-29.9c3-3.4,7.8-5.7,13.5-5.7c5.7,0,10.3,2.2,13.3,5.7C645.4,61.2,646.6,66.1,646.6,86.6 M667.4,86.6
		c0-18.4,0.2-31.7-10.6-42.5c-7.5-7.5-16.6-11.7-28.7-11.7c-12.1,0-21.4,4.2-28.9,11.7c-10.8,10.8-10.5,24.1-10.5,42.5
		c0,18.4-0.3,31.7,10.5,42.5c7.5,7.5,16.8,11.7,28.9,11.7c12.1,0,21.3-4.2,28.7-11.7C667.6,118.4,667.4,105,667.4,86.6 M548.7,64.2
		c0,7.3-4.9,12.3-13.8,12.3h-20.4V51.9h20.4C543.8,51.9,548.7,56.8,548.7,64.2 M550.2,108.2c0,7.2-4.5,13.2-13.9,13.2h-21.7V95.2
		h21.7C545.7,95.2,550.2,101,550.2,108.2 M571,109.2c0-14.2-8.2-21-14.7-24c5.4-2.5,13.2-10.2,13.2-22c0-18.3-12.1-29.9-32.9-29.9
		h-42.8v106.6h44.6C557.4,139.9,571,129.1,571,109.2 M474.1,108.5c0-9.4-2.5-17.2-8.2-22.6c-4.5-4.2-10.6-6.9-20.4-8.2L433,75.9
		c-4.3-0.6-7.8-2.2-9.9-4.2c-2.2-2.1-3.1-4.9-3.1-7.6c0-7.3,5.4-13.5,16.5-13.5c7,0,15.1,0.9,21.9,7.3l13.2-13
		c-9.1-8.8-19.8-12.4-34.4-12.4c-23.1,0-37.1,13.3-37.1,32.3c0,9,2.5,15.9,7.6,21c4.8,4.6,11.5,7.5,20.7,8.8l12.9,1.8
		c4.9,0.7,7.3,1.8,9.4,3.7c2.2,2.1,3.3,5.2,3.3,9c0,8.5-6.6,13.2-18.9,13.2c-9.9,0-19-2.2-25.7-9l-13.5,13.5
		c10.5,10.6,22.8,14.1,38.9,14.1C456.9,140.8,474.1,129.1,474.1,108.5 M380.4,33.3h-20.8v106.6h20.8V33.3z M342.7,139.9v-18.6h-48.4
		v-88h-20.8v106.6H342.7z"></path>
</g>
</svg>
