<?xml version="1.0" encoding="utf-8"?>
<!-- Generator: Adobe Illustrator 27.1.1, SVG Export Plug-In . SVG Version: 6.00 Build 0)  -->
<svg version="1.1" id="Layer_1" xmlns="http://www.w3.org/2000/svg" xmlns:xlink="http://www.w3.org/1999/xlink" x="0px" y="0px" viewBox="0 0 326 261" style="enable-background: new 0 0 326 261" xml:space="preserve">
<style>.st0 {
  fill: #acea00;
}

</style>
<path class="st0" d="M245,72.4c4.6,13.1,7.1,28.2,7.1,44.1c0,1.3-0.1,2.6-0.1,3.9c0,17.6-10.6,33.2-25.6,40
	c-19.4,8.5-44.6,15.6-72.4,20c-20.8,3.3-40.5,4.6-58,4.2l-30.7,72.3c-1.3,2.5-3.6,4.2-6.5,4.2c-1.8,0-3.5-0.7-4.7-1.8L2.2,216.6
	c-1.4-1.3-2.3-3.2-2.3-5.3c0-2.3,0.9-4.4,2.9-5.7L210.2,13.1c8.8-8,20.4-12.9,33.3-12.9c13.4,0,25.6,5.3,34.7,13.9l46.2,47
	c1.2,1.3,1.8,2.9,1.8,4.8c0,3.9-3.2,7.1-7.1,7.1L245,72.4z"></path>
</svg>
