<svg version="1.1" id="Camada_1" xmlns="http://www.w3.org/2000/svg" x="0" y="0" viewBox="0 0 770 208" style="enable-background:new 0 0 770 208" xml:space="preserve"><path d="M72.5 80.1c1.4 3.9 2.1 8.4 2.1 13.2v1.2c0 5.3-3.2 9.9-7.7 12-5.8 2.5-13.3 4.7-21.6 6-6.2 1-12.1 1.4-17.3 1.3l-9.2 21.6c-.4.7-1.1 1.3-1.9 1.3-.5 0-1-.2-1.4-.5L0 123.4c-.4-.4-.7-1-.7-1.6 0-.7.3-1.3.9-1.7l62.1-57.6c2.6-2.4 6.1-3.9 10-3.9 4 0 7.7 1.6 10.4 4.2l13.8 14.1c.3.4.5.9.5 1.4 0 1.2-.9 2.1-2.1 2.1l-22.4-.3z"/><path d="M72.5 80.1c1.4 3.9 2.1 8.4 2.1 13.2v1.2c0 5.3-3.2 9.9-7.7 12-5.8 2.5-13.3 4.7-21.6 6-6.2 1-12.1 1.4-17.3 1.3l-9.2 21.6c-.4.7-1.1 1.3-1.9 1.3-.5 0-1-.2-1.4-.5L0 123.4c-.4-.4-.7-1-.7-1.6 0-.7.3-1.3.9-1.7l62.1-57.6c2.6-2.4 6.1-3.9 10-3.9 4 0 7.7 1.6 10.4 4.2l13.8 14.1c.3.4.5.9.5 1.4 0 1.2-.9 2.1-2.1 2.1l-22.4-.3zM176.7 197.3c.9-1 1.5-2.4 1.5-3.8 0-3.2-2.6-5.7-5.7-5.7-1.5 0-2.8.6-3.8 1.5-4.1 3.9-8.7 6.1-15 6.2-5.8.1-11.2-2.2-15-6-1.1-1-2.5-1.7-4.1-1.7-1.8 0-3.1.7-4.2 1.9-3.6 3.7-8.5 6-14.1 6s-10.4-2.1-14-5.9c-1.1-1.3-2.7-2.1-4.4-2.1-1.6 0-3.2.7-4.2 1.8-3.9 3.9-9.1 6.1-15 6.1-5.8 0-11.2-2.4-15-6.3-1.1-1-2.5-1.7-4.1-1.7-3.2 0-5.7 2.6-5.7 5.7 0 1.4.6 3 1.5 4 5.2 6 13.1 9.8 21.7 9.8 6.2 0 12.1-1.8 16.8-5.1.9-.8 2.2-1.2 3.6-1.2 1.5 0 2.8.5 3.8 1.4 4.1 3 9.2 4.9 14.7 4.9 5.7 0 10.9-1.9 15.2-5.2 1-.8 2.2-1.3 3.5-1.3 1.4 0 2.5.4 3.5 1.2 4.7 3.3 10.4 5.2 16.5 5.2 8.7.3 16.6-3.7 22-9.7"/><path d="M176.7 197.3c.9-1 1.5-2.4 1.5-3.8 0-3.2-2.6-5.7-5.7-5.7-1.5 0-2.8.6-3.8 1.5-4.1 3.9-8.7 6.1-15 6.2-5.8.1-11.2-2.2-15-6-1.1-1-2.5-1.7-4.1-1.7-1.8 0-3.1.7-4.2 1.9-3.6 3.7-8.5 6-14.1 6s-10.4-2.1-14-5.9c-1.1-1.3-2.7-2.1-4.4-2.1-1.6 0-3.2.7-4.2 1.8-3.9 3.9-9.1 6.1-15 6.1-5.8 0-11.2-2.4-15-6.3-1.1-1-2.5-1.7-4.1-1.7-3.2 0-5.7 2.6-5.7 5.7 0 1.4.6 3 1.5 4 5.2 6 13.1 9.8 21.7 9.8 6.2 0 12.1-1.8 16.8-5.1.9-.8 2.2-1.2 3.6-1.2 1.5 0 2.8.5 3.8 1.4 4.1 3 9.2 4.9 14.7 4.9 5.7 0 10.9-1.9 15.2-5.2 1-.8 2.2-1.3 3.5-1.3 1.4 0 2.5.4 3.5 1.2 4.7 3.3 10.4 5.2 16.5 5.2 8.7.3 16.6-3.7 22-9.7zM161.6 36.5c0-1.8-1.5-3.3-3.3-3.3H73.8c-1.8 0-3.4 1.4-3.4 3.2v7.2c0 1.8 1.6 3.5 3.4 3.5h37l-6.8 94.8c-12.4-3.4-22.5-11.9-28.1-23.2H42.3c-1.8 0-3.2 1.6-3.2 3.4l-.1 8.7c0 1.8 1.6 3.4 3.5 3.4h8.9c8.1 28 33.9 48.4 64.5 48.4s56.5-20.6 64.6-48.6h8.5c1.8 0 3.4-1.5 3.4-3.3l-.1-8.7c0-1.8-1.4-3.4-3.2-3.4h-32.9c-5.6 11.7-15.7 19.9-28.4 23.4l-6.5-95h36.9c1.8 0 3.4-1.3 3.4-3.2v-7.3z"/><path d="M161.6 36.5c0-1.8-1.5-3.3-3.3-3.3H73.8c-1.8 0-3.4 1.4-3.4 3.2v7.2c0 1.8 1.6 3.5 3.4 3.5h37l-6.8 94.8c-12.4-3.4-22.5-11.9-28.1-23.2H42.3c-1.8 0-3.2 1.6-3.2 3.4l-.1 8.7c0 1.8 1.6 3.4 3.5 3.4h8.9c8.1 28 33.9 48.4 64.5 48.4s56.5-20.6 64.6-48.6h8.5c1.8 0 3.4-1.5 3.4-3.3l-.1-8.7c0-1.8-1.4-3.4-3.2-3.4h-32.9c-5.6 11.7-15.7 19.9-28.4 23.4l-6.5-95h36.9c1.8 0 3.4-1.3 3.4-3.2v-7.3zM136.5 26.9c1.3 0 2.3-1 2.3-2.3 0-.7-.3-1.3-.8-1.7l-12.3-9.3L138 4c.4-.4.7-1 .7-1.7 0-1.3-1.1-2.3-2.3-2.3h-30.7c-1.8 0-3.3 1.6-3.3 3.4l-.1 20.3c0 1.8 1.5 3.3 3.3 3.3l30.9-.1z"/><path d="M136.5 26.9c1.3 0 2.3-1 2.3-2.3 0-.7-.3-1.3-.8-1.7l-12.3-9.3L138 4c.4-.4.7-1 .7-1.7 0-1.3-1.1-2.3-2.3-2.3h-30.7c-1.8 0-3.3 1.6-3.3 3.4l-.1 20.3c0 1.8 1.5 3.3 3.3 3.3l30.9-.1zM157.3 79.8c-1.4 3.9-2.1 8.4-2.1 13.2v1.2c0 5.3 3.2 9.9 7.7 12 5.8 2.5 13.3 4.7 21.6 6 6.2 1 12.1 1.4 17.3 1.3l9.2 21.6c.4.7 1.1 1.3 1.9 1.3.5 0 1-.2 1.4-.5l15.5-12.8c.4-.4.7-.9.7-1.6 0-.7-.3-1.3-.9-1.7l-62.1-57.6c-2.6-2.4-6.1-3.9-10-3.9-4 0-7.7 1.6-10.4 4.2l-13.8 14.1c-.3.4-.5.9-.5 1.4 0 1.2.9 2.1 2.1 2.1l22.4-.3z"/><path d="M157.3 79.8c-1.4 3.9-2.1 8.4-2.1 13.2v1.2c0 5.3 3.2 9.9 7.7 12 5.8 2.5 13.3 4.7 21.6 6 6.2 1 12.1 1.4 17.3 1.3l9.2 21.6c.4.7 1.1 1.3 1.9 1.3.5 0 1-.2 1.4-.5l15.5-12.8c.4-.4.7-.9.7-1.6 0-.7-.3-1.3-.9-1.7l-62.1-57.6c-2.6-2.4-6.1-3.9-10-3.9-4 0-7.7 1.6-10.4 4.2l-13.8 14.1c-.3.4-.5.9-.5 1.4 0 1.2.9 2.1 2.1 2.1l22.4-.3zM769.4 205.3c0-.2-.1-.3-.1-.4-.1-.1-.1-.2-.2-.2-.1-.1-.2-.1-.3-.1h-8.4v-20.2c0-.1 0-.2-.1-.3 0-.1-.1-.1-.3-.2-.1 0-.3-.1-.5-.1h-1.4c-.2 0-.4.1-.5.1-.1 0-.2.1-.3.2 0 .1-.1.2-.1.3V206c0 .5.1.8.4 1 .2.2.5.3.8.3h10.3c.1 0 .2 0 .3-.1l.2-.2c.1-.1.1-.3.1-.4v-.6c.2-.4.2-.6.1-.7m-34.1-6.7h-8.1l4-11.6 4.1 11.6zm-1.8-14.2c0-.1-.1-.2-.2-.3-.1-.1-.2-.2-.4-.2s-.4-.1-.6-.1h-1.9c-.2 0-.4.1-.6.1-.1.1-.3.1-.3.2-.1.1-.1.2-.2.3l-7.8 21.7c-.1.3-.1.5-.2.6 0 .2 0 .3.1.4.1.1.2.1.5.2H723.6c.2 0 .4-.1.5-.1.1-.1.2-.1.3-.2.1-.1.1-.2.1-.3l1.9-5.6h9.7l2 5.7c0 .1.1.2.2.3.1.1.1.1.3.2.1 0 .3.1.5.1h1.8c.2 0 .4-.1.5-.2.1-.1.1-.2.1-.4s-.1-.4-.2-.6l-7.8-21.8zm-27.5 8.5c-.2.6-.5 1.1-1 1.5-.4.4-.9.8-1.6 1-.6.2-1.4.4-2.3.4h-2.8v-9.4h2.9c.5 0 1.1 0 1.6.1.6.1 1.1.3 1.6.6s1 .8 1.3 1.4c.4.6.5 1.4.5 2.4.2.8.1 1.4-.2 2m3.3-4.6c-.2-.7-.6-1.4-1.1-1.9-.5-.6-1-1-1.7-1.4-.7-.4-1.3-.6-1.9-.8-.6-.1-1.2-.2-1.6-.3-.5 0-.9-.1-1.5-.1h-5c-.3 0-.6.1-.8.3-.3.2-.4.5-.4 1v21.5c0 .1 0 .2.1.3 0 .1.1.1.3.2.1 0 .3.1.5.1h1.5c.2 0 .4-.1.5-.1.1 0 .2-.1.3-.2.1-.1.1-.2.1-.3v-8.4h2.7c1.4 0 2.7-.2 3.7-.5 1-.4 1.9-.9 2.6-1.5.7-.7 1.3-1.5 1.7-2.4.4-.9.6-2 .6-3.2-.3-.8-.4-1.6-.6-2.3m-32.4-3.9c0-.1 0-.2-.1-.3 0-.1-.1-.1-.3-.2-.1 0-.3-.1-.5-.1h-1.4c-.2 0-.4.1-.5.1-.1 0-.2.1-.3.2-.1.1-.1.2-.1.3v22.4c0 .1 0 .2.1.3 0 .1.1.1.3.2.1 0 .3.1.5.1h1.4c.2 0 .4-.1.5-.1.1 0 .2-.1.3-.2 0-.1.1-.2.1-.3v-22.4zm-19.4 18.8c0-.2 0-.3-.1-.4 0-.1-.1-.2-.1-.2-.1 0-.1-.1-.2-.1-.2 0-.4.1-.7.3-.3.2-.7.5-1.2.8-.5.3-1.1.5-1.8.8-.7.2-1.5.3-2.4.3-1.1 0-2.1-.2-3-.6-.9-.4-1.6-1-2.2-1.7-.6-.8-1.1-1.7-1.4-2.9-.3-1.1-.5-2.4-.5-3.9s.2-2.8.5-4c.3-1.2.8-2.1 1.4-2.9.6-.8 1.3-1.4 2.2-1.8.9-.4 1.8-.6 2.8-.6 1 0 1.8.1 2.5.3.7.2 1.3.5 1.7.8.5.3.9.5 1.2.8.3.2.5.4.7.4.1 0 .2 0 .2-.1.1-.1.1-.1.2-.3 0-.1.1-.3.1-.4v-1.2c0-.2 0-.3-.1-.4 0-.1-.1-.2-.1-.3 0-.1-.2-.2-.3-.4-.2-.2-.5-.4-.9-.6-.4-.3-.9-.5-1.4-.7-.5-.2-1.1-.3-1.8-.5-.6-.1-1.3-.2-2-.2-1.5 0-2.9.3-4.2.8-1.3.6-2.3 1.4-3.2 2.4-.9 1-1.6 2.3-2.1 3.8s-.7 3.2-.7 5.2c0 1.9.2 3.6.7 5 .5 1.4 1.1 2.7 2 3.7.9 1 1.9 1.7 3.1 2.2 1.2.5 2.6.8 4.1.8.9 0 1.7-.1 2.4-.2.7-.2 1.4-.4 2-.6.6-.2 1-.5 1.4-.7.4-.2.6-.4.8-.6l.3-.3c0-.1.1-.2.1-.3 0-.1.1-.2.1-.4v-.5c-.1-.2-.1-.4-.1-.6m-34-18.8c0-.1 0-.2-.1-.3-.1-.1-.1-.1-.3-.2-.1 0-.3-.1-.5-.1h-1.4c-.2 0-.4.1-.5.1-.1 0-.2.1-.3.2-.1.1-.1.2-.1.3v22.4c0 .1 0 .2.1.3 0 .1.1.1.3.2.1 0 .3.1.5.1h1.4c.2 0 .4-.1.5-.1.1 0 .2-.1.3-.2 0-.1.1-.2.1-.3v-22.4zm-21.4 0c0-.1 0-.2-.1-.2l-.2-.2c-.1-.1-.3-.1-.5-.1h-1.5c-.2 0-.4.1-.5.1-.1.1-.2.1-.3.2-.1.1-.1.2-.1.2v18.7c-.3-.6-.6-1.1-.8-1.7-.3-.6-.6-1.1-.9-1.7l-.9-1.8c-.3-.6-.6-1.2-1-1.8l-5.5-10.2c-.2-.4-.4-.7-.6-.9l-.6-.6c-.2-.1-.4-.2-.7-.3-.2-.1-.5-.1-.9-.1h-1.5c-.3 0-.6.1-.9.3-.3.2-.4.5-.4 1v21.5c0 .1 0 .2.1.2l.2.2c.1 0 .3.1.5.1h1.5c.2 0 .4-.1.5-.1.1 0 .2-.1.3-.2.1-.1.1-.2.1-.2V190c0-.9 0-1.8-.1-2.6.3.7.7 1.4 1.1 2.2.4.8.8 1.5 1.1 2.2l7.1 13.3c.2.5.5.9.7 1.2.2.3.4.5.7.7.2.2.4.3.7.4.2.1.5.1.9.1h1c.2 0 .3 0 .5-.1.2 0 .3-.1.4-.2.1-.1.2-.2.3-.4.1-.2.1-.4.1-.6v-21.8zm-36 0c0-.1 0-.2-.1-.3-.1-.1-.1-.1-.3-.2-.1 0-.3-.1-.5-.1h-1.4c-.2 0-.4.1-.5.1-.1 0-.2.1-.3.2 0 .1-.1.2-.1.3v14.3c0 1-.1 2-.4 2.7-.3.8-.6 1.4-1.1 2-.5.5-1.1.9-1.8 1.2-.7.3-1.5.4-2.4.4-.9 0-1.7-.1-2.4-.4-.7-.3-1.3-.7-1.8-1.2s-.9-1.2-1.1-2c-.3-.8-.4-1.7-.4-2.8v-14.1c0-.1 0-.2-.1-.3 0-.1-.1-.1-.2-.2-.1 0-.3-.1-.5-.1h-1.5c-.2 0-.3.1-.5.1-.1 0-.2.1-.3.2 0 .1-.1.2-.1.3V199c0 1.4.2 2.7.6 3.8.4 1.1 1 2 1.8 2.7.8.7 1.7 1.3 2.7 1.6 1.1.4 2.2.6 3.5.6 1.4 0 2.7-.2 3.8-.6 1.1-.4 2-1 2.8-1.7.8-.8 1.4-1.7 1.8-2.8.4-1.1.6-2.4.6-3.8v-14.4zm-35.9.9c0-.3 0-.5-.1-.6-.1-.2-.2-.3-.3-.4-.1-.1-.3-.2-.4-.3-.2-.1-.3-.1-.5-.1h-2c-.3 0-.6 0-.8.1l-.6.3c-.2.1-.4.4-.5.6-.2.3-.3.6-.4.9l-6.9 16.8h-.1l-6.7-16.9c-.1-.3-.2-.6-.4-.8-.1-.2-.3-.4-.6-.6-.2-.2-.5-.3-.8-.3-.3-.1-.6-.1-1-.1h-1.9c-.3 0-.6.1-.9.3-.3.2-.4.6-.4 1.1v21.5c0 .1 0 .2.1.3 0 .1.1.1.2.2.1 0 .3.1.5.1h1.5c.2 0 .4-.1.5-.1.1 0 .2-.1.3-.2 0-.1.1-.2.1-.3v-20.3l7.9 20.4c0 .1.1.1.1.2.1.1.2.1.3.2.1 0 .3.1.4.1H518.1c.2 0 .3 0 .4-.1.1 0 .2-.1.3-.2l.2-.2 8.2-20.4v20.3c0 .1 0 .2.1.3.1.1.1.1.3.2.1 0 .3.1.5.1h1.5c.2 0 .4-.1.5-.1.1 0 .2-.1.3-.2.1-.1.1-.2.1-.3v-21.5zm-68.8 13.3h-8.1l4-11.6 4.1 11.6zm-1.9-14.2c0-.1-.1-.2-.2-.3-.1-.1-.2-.2-.4-.2s-.4-.1-.6-.1h-1.9c-.2 0-.4.1-.6.1-.2.1-.3.1-.3.2-.1.1-.1.2-.2.3l-7.8 21.7c-.1.3-.1.5-.2.6 0 .2 0 .3.1.4.1.1.2.1.5.2H449.6c.2 0 .4-.1.5-.1.1-.1.2-.1.3-.2.1-.1.1-.2.1-.3l1.9-5.6h9.7l2 5.7c.1.1.1.2.2.3.1.1.1.1.3.2.1 0 .3.1.5.1h1.8c.2 0 .4-.1.5-.2.1-.1.1-.2.1-.4s-.1-.4-.2-.6l-7.8-21.8zm-31.3 7.5c-.2.5-.5.9-.9 1.3s-.9.6-1.5.8c-.6.2-1.3.3-2.1.3h-3v-7.9h2.6c.6 0 1.1 0 1.5.1.4 0 .7.1 1 .2 1 .3 1.6.7 2.1 1.4.4.6.6 1.4.6 2.3 0 .5-.1 1-.3 1.5m4.9 14.4c0-.2-.2-.5-.3-.9l-2.1-5.1c-.2-.6-.5-1.1-.7-1.6-.2-.5-.5-.9-.8-1.2-.3-.4-.6-.7-.9-.9-.3-.3-.7-.5-1-.6.7-.2 1.3-.5 1.9-.9.6-.3 1-.8 1.4-1.2.4-.5.7-1 .9-1.6.2-.6.3-1.3.3-2.1s-.1-1.5-.4-2.2c-.2-.7-.6-1.3-1.1-1.8-.5-.5-1-.9-1.7-1.3-.7-.3-1.5-.6-2.4-.7-.3 0-.7-.1-1.1-.1h-6.5c-.3 0-.5.1-.8.3-.2.2-.4.5-.4 1V207c0 .1 0 .2.1.3 0 .1.1.1.3.2.1 0 .3.1.5.1h1.4c.2 0 .4-.1.5-.1.1 0 .2-.1.3-.2.1-.1.1-.2.1-.3v-9.9h2.1c.7 0 1.3.1 1.8.3.5.2.9.5 1.3.9s.7.8 1 1.4c.3.5.5 1.1.8 1.7l2.1 5.5c0 .1.1.3.2.4.1.1.2.2.3.2.1.1.3.1.5.1H432.4c.2 0 .4-.1.5-.1.1 0 .2-.1.2-.2v-.3c.1-.4.1-.5 0-.7m-37.5-7.7h-8.1l4-11.6 4.1 11.6zm-1.9-14.2c-.1-.1-.1-.2-.2-.3-.1-.1-.2-.2-.4-.2s-.4-.1-.6-.1h-1.9c-.2 0-.4.1-.6.1-.2.1-.3.1-.3.2-.1.1-.1.2-.2.3l-7.8 21.7c-.1.3-.1.5-.2.6 0 .2 0 .3.1.4.1.1.2.1.5.2H383.8c.2 0 .4-.1.5-.1.1-.1.2-.1.3-.2.1-.1.1-.2.1-.3l1.9-5.6h9.7l2 5.7c0 .1.1.2.2.3.1.1.1.1.3.2.1 0 .3.1.5.1h1.8c.2 0 .4-.1.5-.2.1-.1.1-.2.1-.4s-.1-.4-.2-.6l-7.8-21.8zm-28 .9c0-.3 0-.5-.1-.6-.1-.2-.2-.3-.3-.4-.1-.1-.3-.2-.4-.3-.2-.1-.3-.1-.5-.1h-2c-.3 0-.6 0-.8.1l-.6.3c-.2.1-.4.4-.5.6-.2.3-.3.6-.4.9l-6.9 16.8h-.1l-6.7-16.9c-.1-.3-.2-.6-.4-.8-.1-.2-.3-.4-.6-.6-.2-.2-.5-.3-.8-.3-.3-.1-.6-.1-1-.1h-1.9c-.3 0-.6.1-.9.3-.3.2-.4.6-.4 1.1v21.5c0 .1 0 .2.1.3 0 .1.1.1.2.2.1 0 .3.1.5.1h1.5c.2 0 .4-.1.5-.1.1 0 .2-.1.3-.2 0-.1.1-.2.1-.3v-20.3l7.9 20.4c0 .1.1.1.1.2.1.1.2.1.3.2.1 0 .3.1.5.1H353.7c.2 0 .3 0 .5-.1.1 0 .2-.1.3-.2l.2-.2 8.2-20.4v20.3c0 .1 0 .2.1.3 0 .1.1.1.3.2.1 0 .3.1.5.1h1.5c.2 0 .3-.1.5-.1.1 0 .2-.1.3-.2 0-.1.1-.2.1-.3v-21.5zm-51.8-8.5c-.2 0-.3 0-.5.1-.1 0-.2.1-.4.2l-.3.3-4 4.1c-.1.1-.2.2-.2.3 0 .1 0 .2.1.2.1.1.2.1.3.1h1.5c.2 0 .4 0 .5-.1.1 0 .3-.1.4-.2.1-.1.2-.1.3-.2l2.9-3 2.8 3.1.2.2c.1.1.2.1.3.1.1 0 .3.1.5.1h1.5c.2 0 .3-.1.4-.1.1-.1.1-.1.1-.2s-.1-.2-.2-.3l-3.9-4.1-.3-.3c-.1-.1-.2-.1-.3-.2-.1 0-.3-.1-.4-.1H313.9m4.4 21.8h-8.1l4-11.6 4.1 11.6zm-1.9-14.2c0-.1-.1-.2-.2-.3-.1-.1-.2-.2-.4-.2s-.4-.1-.6-.1h-1.9c-.2 0-.4.1-.6.1-.1.1-.3.1-.3.2-.1.1-.1.2-.2.3l-7.8 21.7c-.1.3-.1.5-.2.6 0 .2 0 .3.1.4.1.1.2.1.5.2H306.5c.2 0 .4-.1.5-.1.1-.1.2-.1.3-.2.1-.1.1-.2.1-.3l1.9-5.6h9.7l2 5.7c0 .1.1.2.2.3.1.1.1.1.3.2.1 0 .3.1.5.1h1.8c.2 0 .4-.1.5-.2.1-.1.1-.2.1-.4s-.1-.4-.2-.6l-7.8-21.8zm-26 18.8c0-.2 0-.3-.1-.4 0-.1-.1-.2-.1-.2-.1 0-.1-.1-.2-.1-.2 0-.4.1-.7.3-.3.2-.7.5-1.2.8-.5.3-1.1.5-1.8.8-.7.2-1.5.3-2.4.3-1.1 0-2.1-.2-3-.6-.9-.4-1.6-1-2.2-1.7-.6-.8-1.1-1.7-1.4-2.9-.3-1.1-.5-2.4-.5-3.9s.2-2.8.5-4c.3-1.2.8-2.1 1.4-2.9.6-.8 1.3-1.4 2.2-1.8.9-.4 1.8-.6 2.8-.6 1 0 1.8.1 2.5.3.7.2 1.3.5 1.7.8.5.3.9.5 1.2.8.3.2.5.4.7.4.1 0 .2 0 .2-.1.1-.1.1-.1.2-.3 0-.1.1-.3.1-.4v-1.2c0-.2 0-.3-.1-.4 0-.1-.1-.2-.1-.3 0-.1-.2-.2-.3-.4-.2-.2-.5-.4-.9-.6-.4-.3-.9-.5-1.4-.7-.5-.2-1.1-.3-1.8-.5-.6-.1-1.3-.2-2-.2-1.5 0-2.9.3-4.2.8-1.3.6-2.3 1.4-3.2 2.4-.9 1-1.6 2.3-2.1 3.8s-.7 3.2-.7 5.2c0 1.9.2 3.6.7 5 .5 1.4 1.1 2.7 2 3.7.9 1 1.9 1.7 3.1 2.2 1.2.5 2.6.8 4.1.8.9 0 1.7-.1 2.4-.2.7-.2 1.4-.4 2-.6.6-.2 1-.5 1.4-.7.4-.2.6-.4.8-.6l.3-.3c0-.1.1-.2.1-.3 0-.1.1-.2.1-.4v-.5c0-.2 0-.4-.1-.6M736 103.5h-26.5L723 64.8l13 38.7zm33.5 36.4L730.6 33.3h-16.3l-38.8 106.6h21.7l6.4-18.9h37.9l6.3 18.9h21.7zM646.6 86.6c0 20.5-1.2 25.5-5.2 29.9-3 3.4-7.6 5.7-13.3 5.7-5.7 0-10.5-2.2-13.5-5.7-4-4.5-5.1-9.4-5.1-29.9s1-25.5 5.1-29.9c3-3.4 7.8-5.7 13.5-5.7s10.3 2.2 13.3 5.7c4 4.5 5.2 9.4 5.2 29.9m20.8 0c0-18.4.2-31.7-10.6-42.5-7.5-7.5-16.6-11.7-28.7-11.7-12.1 0-21.4 4.2-28.9 11.7-10.8 10.8-10.5 24.1-10.5 42.5s-.3 31.7 10.5 42.5c7.5 7.5 16.8 11.7 28.9 11.7 12.1 0 21.3-4.2 28.7-11.7 10.8-10.7 10.6-24.1 10.6-42.5M548.7 64.2c0 7.3-4.9 12.3-13.8 12.3h-20.4V51.9h20.4c8.9 0 13.8 4.9 13.8 12.3m1.5 44c0 7.2-4.5 13.2-13.9 13.2h-21.7V95.2h21.7c9.4 0 13.9 5.8 13.9 13m20.8 1c0-14.2-8.2-21-14.7-24 5.4-2.5 13.2-10.2 13.2-22 0-18.3-12.1-29.9-32.9-29.9h-42.8v106.6h44.6c19 0 32.6-10.8 32.6-30.7m-96.9-.7c0-9.4-2.5-17.2-8.2-22.6-4.5-4.2-10.6-6.9-20.4-8.2L433 75.9c-4.3-.6-7.8-2.2-9.9-4.2-2.2-2.1-3.1-4.9-3.1-7.6 0-7.3 5.4-13.5 16.5-13.5 7 0 15.1.9 21.9 7.3l13.2-13c-9.1-8.8-19.8-12.4-34.4-12.4-23.1 0-37.1 13.3-37.1 32.3 0 9 2.5 15.9 7.6 21 4.8 4.6 11.5 7.5 20.7 8.8l12.9 1.8c4.9.7 7.3 1.8 9.4 3.7 2.2 2.1 3.3 5.2 3.3 9 0 8.5-6.6 13.2-18.9 13.2-9.9 0-19-2.2-25.7-9l-13.5 13.5c10.5 10.6 22.8 14.1 38.9 14.1 22.1-.1 39.3-11.8 39.3-32.4m-93.7-75.2h-20.8v106.6h20.8V33.3zm-37.7 106.6v-18.6h-48.4v-88h-20.8v106.6h69.2z"/></svg>